%TF.GenerationSoftware,KiCad,Pcbnew,10.0.1*%
%TF.CreationDate,2026-06-29T16:34:01+01:00*%
%TF.ProjectId,harp output expander front panel,68617270-206f-4757-9470-757420657870,rev?*%
%TF.SameCoordinates,Original*%
%TF.FileFunction,Profile,NP*%
%FSLAX46Y46*%
G04 Gerber Fmt 4.6, Leading zero omitted, Abs format (unit mm)*
G04 Created by KiCad (PCBNEW 10.0.1) date 2026-06-29 16:34:01*
%MOMM*%
%LPD*%
G01*
G04 APERTURE LIST*
%TA.AperFunction,Profile*%
%ADD10C,0.050000*%
%TD*%
G04 APERTURE END LIST*
D10*
X82001100Y-90503600D02*
X82001100Y-93253600D01*
X82001100Y-90503600D02*
G75*
G02*
X85001100Y-87503600I3000000J0D01*
G01*
X82001100Y-100753600D02*
X82001100Y-109003600D01*
X82001100Y-116503600D02*
X82001100Y-119503600D01*
X84001100Y-92253600D02*
X82001100Y-93253600D01*
X84001100Y-92253600D02*
X84001100Y-101753600D01*
X84001100Y-101753600D02*
X82001100Y-100753600D01*
X84001100Y-108003600D02*
X82001100Y-109003600D01*
X84001100Y-108003600D02*
X84001100Y-117503600D01*
X84001100Y-117503600D02*
X82001100Y-116503600D01*
X85001100Y-87503600D02*
X212001100Y-87503600D01*
X85001100Y-122503600D02*
G75*
G02*
X82001100Y-119503600I0J3000000D01*
G01*
X85001100Y-122503600D02*
X212001100Y-122503600D01*
X212001100Y-87503600D02*
G75*
G02*
X215001100Y-90503600I0J-3000000D01*
G01*
X213001100Y-92253600D02*
X213001100Y-101753600D01*
X213001100Y-92253600D02*
X215001100Y-93253600D01*
X213001100Y-101753600D02*
X215001100Y-100753600D01*
X213001100Y-108003600D02*
X213001100Y-117503600D01*
X213001100Y-108003600D02*
X215001100Y-109003600D01*
X213001100Y-117503600D02*
X215001100Y-116503600D01*
X215001100Y-93253600D02*
X215001100Y-90503600D01*
X215001100Y-100753600D02*
X215001100Y-109003600D01*
X215001100Y-116503600D02*
X215001100Y-119503600D01*
X215001100Y-119503600D02*
G75*
G02*
X212001100Y-122503600I-3000000J0D01*
G01*
M02*
