%TF.GenerationSoftware,KiCad,Pcbnew,10.0.3*%
%TF.CreationDate,2026-06-03T16:37:02+01:00*%
%TF.ProjectId,harp output expander rear panel,68617270-206f-4757-9470-757420657870,rev?*%
%TF.SameCoordinates,PX4e14cb4PY74f31c8*%
%TF.FileFunction,Legend,Top*%
%TF.FilePolarity,Positive*%
%FSLAX46Y46*%
G04 Gerber Fmt 4.6, Leading zero omitted, Abs format (unit mm)*
G04 Created by KiCad (PCBNEW 10.0.3) date 2026-06-03 16:37:02*
%MOMM*%
%LPD*%
G01*
G04 APERTURE LIST*
%ADD10C,0.289560*%
%ADD11C,0.342900*%
G04 APERTURE END LIST*
D10*
X53265873Y6346353D02*
X52718927Y6346353D01*
X52718927Y5486865D02*
X52718927Y7127705D01*
X52718927Y7127705D02*
X53500279Y7127705D01*
X54359766Y5486865D02*
X54203496Y5565000D01*
X54203496Y5565000D02*
X54125361Y5643136D01*
X54125361Y5643136D02*
X54047225Y5799406D01*
X54047225Y5799406D02*
X54047225Y6268218D01*
X54047225Y6268218D02*
X54125361Y6424488D01*
X54125361Y6424488D02*
X54203496Y6502623D01*
X54203496Y6502623D02*
X54359766Y6580759D01*
X54359766Y6580759D02*
X54594172Y6580759D01*
X54594172Y6580759D02*
X54750443Y6502623D01*
X54750443Y6502623D02*
X54828578Y6424488D01*
X54828578Y6424488D02*
X54906713Y6268218D01*
X54906713Y6268218D02*
X54906713Y5799406D01*
X54906713Y5799406D02*
X54828578Y5643136D01*
X54828578Y5643136D02*
X54750443Y5565000D01*
X54750443Y5565000D02*
X54594172Y5486865D01*
X54594172Y5486865D02*
X54359766Y5486865D01*
X55609931Y5486865D02*
X55609931Y6580759D01*
X55609931Y6268218D02*
X55688066Y6424488D01*
X55688066Y6424488D02*
X55766201Y6502623D01*
X55766201Y6502623D02*
X55922472Y6580759D01*
X55922472Y6580759D02*
X56078742Y6580759D01*
X58813476Y5486865D02*
X58266529Y6268218D01*
X57875853Y5486865D02*
X57875853Y7127705D01*
X57875853Y7127705D02*
X58500935Y7127705D01*
X58500935Y7127705D02*
X58657205Y7049570D01*
X58657205Y7049570D02*
X58735340Y6971435D01*
X58735340Y6971435D02*
X58813476Y6815164D01*
X58813476Y6815164D02*
X58813476Y6580759D01*
X58813476Y6580759D02*
X58735340Y6424488D01*
X58735340Y6424488D02*
X58657205Y6346353D01*
X58657205Y6346353D02*
X58500935Y6268218D01*
X58500935Y6268218D02*
X57875853Y6268218D01*
X60141775Y5565000D02*
X59985504Y5486865D01*
X59985504Y5486865D02*
X59672963Y5486865D01*
X59672963Y5486865D02*
X59516693Y5565000D01*
X59516693Y5565000D02*
X59438557Y5721271D01*
X59438557Y5721271D02*
X59438557Y6346353D01*
X59438557Y6346353D02*
X59516693Y6502623D01*
X59516693Y6502623D02*
X59672963Y6580759D01*
X59672963Y6580759D02*
X59985504Y6580759D01*
X59985504Y6580759D02*
X60141775Y6502623D01*
X60141775Y6502623D02*
X60219910Y6346353D01*
X60219910Y6346353D02*
X60219910Y6190082D01*
X60219910Y6190082D02*
X59438557Y6033812D01*
X60844991Y5565000D02*
X61001262Y5486865D01*
X61001262Y5486865D02*
X61313803Y5486865D01*
X61313803Y5486865D02*
X61470073Y5565000D01*
X61470073Y5565000D02*
X61548209Y5721271D01*
X61548209Y5721271D02*
X61548209Y5799406D01*
X61548209Y5799406D02*
X61470073Y5955677D01*
X61470073Y5955677D02*
X61313803Y6033812D01*
X61313803Y6033812D02*
X61079397Y6033812D01*
X61079397Y6033812D02*
X60923127Y6111947D01*
X60923127Y6111947D02*
X60844991Y6268218D01*
X60844991Y6268218D02*
X60844991Y6346353D01*
X60844991Y6346353D02*
X60923127Y6502623D01*
X60923127Y6502623D02*
X61079397Y6580759D01*
X61079397Y6580759D02*
X61313803Y6580759D01*
X61313803Y6580759D02*
X61470073Y6502623D01*
X62876508Y5565000D02*
X62720237Y5486865D01*
X62720237Y5486865D02*
X62407696Y5486865D01*
X62407696Y5486865D02*
X62251426Y5565000D01*
X62251426Y5565000D02*
X62173290Y5721271D01*
X62173290Y5721271D02*
X62173290Y6346353D01*
X62173290Y6346353D02*
X62251426Y6502623D01*
X62251426Y6502623D02*
X62407696Y6580759D01*
X62407696Y6580759D02*
X62720237Y6580759D01*
X62720237Y6580759D02*
X62876508Y6502623D01*
X62876508Y6502623D02*
X62954643Y6346353D01*
X62954643Y6346353D02*
X62954643Y6190082D01*
X62954643Y6190082D02*
X62173290Y6033812D01*
X64361077Y5486865D02*
X64361077Y6346353D01*
X64361077Y6346353D02*
X64282942Y6502623D01*
X64282942Y6502623D02*
X64126671Y6580759D01*
X64126671Y6580759D02*
X63814130Y6580759D01*
X63814130Y6580759D02*
X63657860Y6502623D01*
X64361077Y5565000D02*
X64204806Y5486865D01*
X64204806Y5486865D02*
X63814130Y5486865D01*
X63814130Y5486865D02*
X63657860Y5565000D01*
X63657860Y5565000D02*
X63579724Y5721271D01*
X63579724Y5721271D02*
X63579724Y5877541D01*
X63579724Y5877541D02*
X63657860Y6033812D01*
X63657860Y6033812D02*
X63814130Y6111947D01*
X63814130Y6111947D02*
X64204806Y6111947D01*
X64204806Y6111947D02*
X64361077Y6190082D01*
X65142430Y5486865D02*
X65142430Y6580759D01*
X65142430Y6268218D02*
X65220565Y6424488D01*
X65220565Y6424488D02*
X65298700Y6502623D01*
X65298700Y6502623D02*
X65454971Y6580759D01*
X65454971Y6580759D02*
X65611241Y6580759D01*
X66861405Y5565000D02*
X66705134Y5486865D01*
X66705134Y5486865D02*
X66392593Y5486865D01*
X66392593Y5486865D02*
X66236323Y5565000D01*
X66236323Y5565000D02*
X66158188Y5643136D01*
X66158188Y5643136D02*
X66080052Y5799406D01*
X66080052Y5799406D02*
X66080052Y6268218D01*
X66080052Y6268218D02*
X66158188Y6424488D01*
X66158188Y6424488D02*
X66236323Y6502623D01*
X66236323Y6502623D02*
X66392593Y6580759D01*
X66392593Y6580759D02*
X66705134Y6580759D01*
X66705134Y6580759D02*
X66861405Y6502623D01*
X67564622Y5486865D02*
X67564622Y7127705D01*
X68267839Y5486865D02*
X68267839Y6346353D01*
X68267839Y6346353D02*
X68189704Y6502623D01*
X68189704Y6502623D02*
X68033433Y6580759D01*
X68033433Y6580759D02*
X67799027Y6580759D01*
X67799027Y6580759D02*
X67642757Y6502623D01*
X67642757Y6502623D02*
X67564622Y6424488D01*
X70299356Y7127705D02*
X70299356Y5799406D01*
X70299356Y5799406D02*
X70377491Y5643136D01*
X70377491Y5643136D02*
X70455626Y5565000D01*
X70455626Y5565000D02*
X70611897Y5486865D01*
X70611897Y5486865D02*
X70924438Y5486865D01*
X70924438Y5486865D02*
X71080708Y5565000D01*
X71080708Y5565000D02*
X71158843Y5643136D01*
X71158843Y5643136D02*
X71236979Y5799406D01*
X71236979Y5799406D02*
X71236979Y7127705D01*
X71940195Y5565000D02*
X72096466Y5486865D01*
X72096466Y5486865D02*
X72409007Y5486865D01*
X72409007Y5486865D02*
X72565277Y5565000D01*
X72565277Y5565000D02*
X72643413Y5721271D01*
X72643413Y5721271D02*
X72643413Y5799406D01*
X72643413Y5799406D02*
X72565277Y5955677D01*
X72565277Y5955677D02*
X72409007Y6033812D01*
X72409007Y6033812D02*
X72174601Y6033812D01*
X72174601Y6033812D02*
X72018331Y6111947D01*
X72018331Y6111947D02*
X71940195Y6268218D01*
X71940195Y6268218D02*
X71940195Y6346353D01*
X71940195Y6346353D02*
X72018331Y6502623D01*
X72018331Y6502623D02*
X72174601Y6580759D01*
X72174601Y6580759D02*
X72409007Y6580759D01*
X72409007Y6580759D02*
X72565277Y6502623D01*
X73971712Y5565000D02*
X73815441Y5486865D01*
X73815441Y5486865D02*
X73502900Y5486865D01*
X73502900Y5486865D02*
X73346630Y5565000D01*
X73346630Y5565000D02*
X73268494Y5721271D01*
X73268494Y5721271D02*
X73268494Y6346353D01*
X73268494Y6346353D02*
X73346630Y6502623D01*
X73346630Y6502623D02*
X73502900Y6580759D01*
X73502900Y6580759D02*
X73815441Y6580759D01*
X73815441Y6580759D02*
X73971712Y6502623D01*
X73971712Y6502623D02*
X74049847Y6346353D01*
X74049847Y6346353D02*
X74049847Y6190082D01*
X74049847Y6190082D02*
X73268494Y6033812D01*
X76315769Y7127705D02*
X76628310Y7127705D01*
X76628310Y7127705D02*
X76784580Y7049570D01*
X76784580Y7049570D02*
X76940851Y6893300D01*
X76940851Y6893300D02*
X77018986Y6580759D01*
X77018986Y6580759D02*
X77018986Y6033812D01*
X77018986Y6033812D02*
X76940851Y5721271D01*
X76940851Y5721271D02*
X76784580Y5565000D01*
X76784580Y5565000D02*
X76628310Y5486865D01*
X76628310Y5486865D02*
X76315769Y5486865D01*
X76315769Y5486865D02*
X76159498Y5565000D01*
X76159498Y5565000D02*
X76003228Y5721271D01*
X76003228Y5721271D02*
X75925092Y6033812D01*
X75925092Y6033812D02*
X75925092Y6580759D01*
X75925092Y6580759D02*
X76003228Y6893300D01*
X76003228Y6893300D02*
X76159498Y7049570D01*
X76159498Y7049570D02*
X76315769Y7127705D01*
X77722203Y6580759D02*
X77722203Y5486865D01*
X77722203Y6424488D02*
X77800338Y6502623D01*
X77800338Y6502623D02*
X77956608Y6580759D01*
X77956608Y6580759D02*
X78191014Y6580759D01*
X78191014Y6580759D02*
X78347285Y6502623D01*
X78347285Y6502623D02*
X78425420Y6346353D01*
X78425420Y6346353D02*
X78425420Y5486865D01*
X79441178Y5486865D02*
X79284908Y5565000D01*
X79284908Y5565000D02*
X79206773Y5721271D01*
X79206773Y5721271D02*
X79206773Y7127705D01*
X79909990Y6580759D02*
X80300666Y5486865D01*
X80691343Y6580759D02*
X80300666Y5486865D01*
X80300666Y5486865D02*
X80144396Y5096189D01*
X80144396Y5096189D02*
X80066261Y5018054D01*
X80066261Y5018054D02*
X79909990Y4939919D01*
D11*
X13455992Y29469730D02*
X13455992Y27896744D01*
X13455992Y27896744D02*
X13548521Y27711687D01*
X13548521Y27711687D02*
X13641050Y27619158D01*
X13641050Y27619158D02*
X13826107Y27526630D01*
X13826107Y27526630D02*
X14196221Y27526630D01*
X14196221Y27526630D02*
X14381278Y27619158D01*
X14381278Y27619158D02*
X14473807Y27711687D01*
X14473807Y27711687D02*
X14566335Y27896744D01*
X14566335Y27896744D02*
X14566335Y29469730D01*
X15399093Y27619158D02*
X15676679Y27526630D01*
X15676679Y27526630D02*
X16139321Y27526630D01*
X16139321Y27526630D02*
X16324379Y27619158D01*
X16324379Y27619158D02*
X16416907Y27711687D01*
X16416907Y27711687D02*
X16509436Y27896744D01*
X16509436Y27896744D02*
X16509436Y28081801D01*
X16509436Y28081801D02*
X16416907Y28266858D01*
X16416907Y28266858D02*
X16324379Y28359387D01*
X16324379Y28359387D02*
X16139321Y28451916D01*
X16139321Y28451916D02*
X15769207Y28544444D01*
X15769207Y28544444D02*
X15584150Y28636973D01*
X15584150Y28636973D02*
X15491621Y28729501D01*
X15491621Y28729501D02*
X15399093Y28914558D01*
X15399093Y28914558D02*
X15399093Y29099616D01*
X15399093Y29099616D02*
X15491621Y29284673D01*
X15491621Y29284673D02*
X15584150Y29377201D01*
X15584150Y29377201D02*
X15769207Y29469730D01*
X15769207Y29469730D02*
X16231850Y29469730D01*
X16231850Y29469730D02*
X16509436Y29377201D01*
X17989892Y28544444D02*
X18267478Y28451916D01*
X18267478Y28451916D02*
X18360007Y28359387D01*
X18360007Y28359387D02*
X18452535Y28174330D01*
X18452535Y28174330D02*
X18452535Y27896744D01*
X18452535Y27896744D02*
X18360007Y27711687D01*
X18360007Y27711687D02*
X18267478Y27619158D01*
X18267478Y27619158D02*
X18082421Y27526630D01*
X18082421Y27526630D02*
X17342192Y27526630D01*
X17342192Y27526630D02*
X17342192Y29469730D01*
X17342192Y29469730D02*
X17989892Y29469730D01*
X17989892Y29469730D02*
X18174950Y29377201D01*
X18174950Y29377201D02*
X18267478Y29284673D01*
X18267478Y29284673D02*
X18360007Y29099616D01*
X18360007Y29099616D02*
X18360007Y28914558D01*
X18360007Y28914558D02*
X18267478Y28729501D01*
X18267478Y28729501D02*
X18174950Y28636973D01*
X18174950Y28636973D02*
X17989892Y28544444D01*
X17989892Y28544444D02*
X17342192Y28544444D01*
X40941792Y27419969D02*
X40849264Y27327440D01*
X40849264Y27327440D02*
X40571678Y27234912D01*
X40571678Y27234912D02*
X40386621Y27234912D01*
X40386621Y27234912D02*
X40109035Y27327440D01*
X40109035Y27327440D02*
X39923978Y27512498D01*
X39923978Y27512498D02*
X39831449Y27697555D01*
X39831449Y27697555D02*
X39738921Y28067669D01*
X39738921Y28067669D02*
X39738921Y28345255D01*
X39738921Y28345255D02*
X39831449Y28715369D01*
X39831449Y28715369D02*
X39923978Y28900426D01*
X39923978Y28900426D02*
X40109035Y29085483D01*
X40109035Y29085483D02*
X40386621Y29178012D01*
X40386621Y29178012D02*
X40571678Y29178012D01*
X40571678Y29178012D02*
X40849264Y29085483D01*
X40849264Y29085483D02*
X40941792Y28992955D01*
X42699835Y27234912D02*
X41774549Y27234912D01*
X41774549Y27234912D02*
X41774549Y29178012D01*
X43347535Y27234912D02*
X43347535Y29178012D01*
X44457878Y27234912D02*
X43625121Y28345255D01*
X44457878Y29178012D02*
X43347535Y28067669D01*
X41080585Y24106630D02*
X41080585Y26049730D01*
X42005871Y24106630D02*
X42005871Y26049730D01*
X42005871Y26049730D02*
X43116214Y24106630D01*
X43116214Y24106630D02*
X43116214Y26049730D01*
X53441792Y27419969D02*
X53349264Y27327440D01*
X53349264Y27327440D02*
X53071678Y27234912D01*
X53071678Y27234912D02*
X52886621Y27234912D01*
X52886621Y27234912D02*
X52609035Y27327440D01*
X52609035Y27327440D02*
X52423978Y27512498D01*
X52423978Y27512498D02*
X52331449Y27697555D01*
X52331449Y27697555D02*
X52238921Y28067669D01*
X52238921Y28067669D02*
X52238921Y28345255D01*
X52238921Y28345255D02*
X52331449Y28715369D01*
X52331449Y28715369D02*
X52423978Y28900426D01*
X52423978Y28900426D02*
X52609035Y29085483D01*
X52609035Y29085483D02*
X52886621Y29178012D01*
X52886621Y29178012D02*
X53071678Y29178012D01*
X53071678Y29178012D02*
X53349264Y29085483D01*
X53349264Y29085483D02*
X53441792Y28992955D01*
X55199835Y27234912D02*
X54274549Y27234912D01*
X54274549Y27234912D02*
X54274549Y29178012D01*
X55847535Y27234912D02*
X55847535Y29178012D01*
X56957878Y27234912D02*
X56125121Y28345255D01*
X56957878Y29178012D02*
X55847535Y28067669D01*
X52655300Y26049730D02*
X53025414Y26049730D01*
X53025414Y26049730D02*
X53210471Y25957201D01*
X53210471Y25957201D02*
X53395528Y25772144D01*
X53395528Y25772144D02*
X53488057Y25402030D01*
X53488057Y25402030D02*
X53488057Y24754330D01*
X53488057Y24754330D02*
X53395528Y24384216D01*
X53395528Y24384216D02*
X53210471Y24199158D01*
X53210471Y24199158D02*
X53025414Y24106630D01*
X53025414Y24106630D02*
X52655300Y24106630D01*
X52655300Y24106630D02*
X52470243Y24199158D01*
X52470243Y24199158D02*
X52285185Y24384216D01*
X52285185Y24384216D02*
X52192657Y24754330D01*
X52192657Y24754330D02*
X52192657Y25402030D01*
X52192657Y25402030D02*
X52285185Y25772144D01*
X52285185Y25772144D02*
X52470243Y25957201D01*
X52470243Y25957201D02*
X52655300Y26049730D01*
X54320814Y26049730D02*
X54320814Y24476744D01*
X54320814Y24476744D02*
X54413343Y24291687D01*
X54413343Y24291687D02*
X54505872Y24199158D01*
X54505872Y24199158D02*
X54690929Y24106630D01*
X54690929Y24106630D02*
X55061043Y24106630D01*
X55061043Y24106630D02*
X55246100Y24199158D01*
X55246100Y24199158D02*
X55338629Y24291687D01*
X55338629Y24291687D02*
X55431157Y24476744D01*
X55431157Y24476744D02*
X55431157Y26049730D01*
X56078858Y26049730D02*
X57189201Y26049730D01*
X56634029Y24106630D02*
X56634029Y26049730D01*
X70957656Y28544444D02*
X71605356Y28544444D01*
X71882942Y27526630D02*
X70957656Y27526630D01*
X70957656Y27526630D02*
X70957656Y29469730D01*
X70957656Y29469730D02*
X71882942Y29469730D01*
X72530642Y29469730D02*
X73826042Y27526630D01*
X73826042Y29469730D02*
X72530642Y27526630D01*
X74566270Y27526630D02*
X74566270Y29469730D01*
X74566270Y29469730D02*
X75306499Y29469730D01*
X75306499Y29469730D02*
X75491556Y29377201D01*
X75491556Y29377201D02*
X75584085Y29284673D01*
X75584085Y29284673D02*
X75676613Y29099616D01*
X75676613Y29099616D02*
X75676613Y28822030D01*
X75676613Y28822030D02*
X75584085Y28636973D01*
X75584085Y28636973D02*
X75491556Y28544444D01*
X75491556Y28544444D02*
X75306499Y28451916D01*
X75306499Y28451916D02*
X74566270Y28451916D01*
X76416842Y28081801D02*
X77342128Y28081801D01*
X76231785Y27526630D02*
X76879485Y29469730D01*
X76879485Y29469730D02*
X77527185Y27526630D01*
X78174884Y27526630D02*
X78174884Y29469730D01*
X78174884Y29469730D02*
X79285227Y27526630D01*
X79285227Y27526630D02*
X79285227Y29469730D01*
X80117985Y27619158D02*
X80395571Y27526630D01*
X80395571Y27526630D02*
X80858213Y27526630D01*
X80858213Y27526630D02*
X81043271Y27619158D01*
X81043271Y27619158D02*
X81135799Y27711687D01*
X81135799Y27711687D02*
X81228328Y27896744D01*
X81228328Y27896744D02*
X81228328Y28081801D01*
X81228328Y28081801D02*
X81135799Y28266858D01*
X81135799Y28266858D02*
X81043271Y28359387D01*
X81043271Y28359387D02*
X80858213Y28451916D01*
X80858213Y28451916D02*
X80488099Y28544444D01*
X80488099Y28544444D02*
X80303042Y28636973D01*
X80303042Y28636973D02*
X80210513Y28729501D01*
X80210513Y28729501D02*
X80117985Y28914558D01*
X80117985Y28914558D02*
X80117985Y29099616D01*
X80117985Y29099616D02*
X80210513Y29284673D01*
X80210513Y29284673D02*
X80303042Y29377201D01*
X80303042Y29377201D02*
X80488099Y29469730D01*
X80488099Y29469730D02*
X80950742Y29469730D01*
X80950742Y29469730D02*
X81228328Y29377201D01*
X82061084Y27526630D02*
X82061084Y29469730D01*
X83356485Y29469730D02*
X83726599Y29469730D01*
X83726599Y29469730D02*
X83911656Y29377201D01*
X83911656Y29377201D02*
X84096713Y29192144D01*
X84096713Y29192144D02*
X84189242Y28822030D01*
X84189242Y28822030D02*
X84189242Y28174330D01*
X84189242Y28174330D02*
X84096713Y27804216D01*
X84096713Y27804216D02*
X83911656Y27619158D01*
X83911656Y27619158D02*
X83726599Y27526630D01*
X83726599Y27526630D02*
X83356485Y27526630D01*
X83356485Y27526630D02*
X83171428Y27619158D01*
X83171428Y27619158D02*
X82986370Y27804216D01*
X82986370Y27804216D02*
X82893842Y28174330D01*
X82893842Y28174330D02*
X82893842Y28822030D01*
X82893842Y28822030D02*
X82986370Y29192144D01*
X82986370Y29192144D02*
X83171428Y29377201D01*
X83171428Y29377201D02*
X83356485Y29469730D01*
X85021999Y27526630D02*
X85021999Y29469730D01*
X85021999Y29469730D02*
X86132342Y27526630D01*
X86132342Y27526630D02*
X86132342Y29469730D01*
M02*
