%TF.GenerationSoftware,KiCad,Pcbnew,10.0.1*%
%TF.CreationDate,2026-06-29T16:39:08+01:00*%
%TF.ProjectId,harp output expander rear panel,68617270-206f-4757-9470-757420657870,rev?*%
%TF.SameCoordinates,PX4e14cb4PY74f31c8*%
%TF.FileFunction,Legend,Top*%
%TF.FilePolarity,Positive*%
%FSLAX46Y46*%
G04 Gerber Fmt 4.6, Leading zero omitted, Abs format (unit mm)*
G04 Created by KiCad (PCBNEW 10.0.1) date 2026-06-29 16:39:08*
%MOMM*%
%LPD*%
G01*
G04 APERTURE LIST*
%ADD10C,0.289560*%
%ADD11C,0.342900*%
%ADD12C,6.000000*%
G04 APERTURE END LIST*
D10*
X53265873Y6346353D02*
X52718927Y6346353D01*
X52718927Y5486865D02*
X52718927Y7127705D01*
X52718927Y7127705D02*
X53500279Y7127705D01*
X54359766Y5486865D02*
X54203496Y5565000D01*
X54203496Y5565000D02*
X54125361Y5643136D01*
X54125361Y5643136D02*
X54047225Y5799406D01*
X54047225Y5799406D02*
X54047225Y6268218D01*
X54047225Y6268218D02*
X54125361Y6424488D01*
X54125361Y6424488D02*
X54203496Y6502623D01*
X54203496Y6502623D02*
X54359766Y6580759D01*
X54359766Y6580759D02*
X54594172Y6580759D01*
X54594172Y6580759D02*
X54750443Y6502623D01*
X54750443Y6502623D02*
X54828578Y6424488D01*
X54828578Y6424488D02*
X54906713Y6268218D01*
X54906713Y6268218D02*
X54906713Y5799406D01*
X54906713Y5799406D02*
X54828578Y5643136D01*
X54828578Y5643136D02*
X54750443Y5565000D01*
X54750443Y5565000D02*
X54594172Y5486865D01*
X54594172Y5486865D02*
X54359766Y5486865D01*
X55609931Y5486865D02*
X55609931Y6580759D01*
X55609931Y6268218D02*
X55688066Y6424488D01*
X55688066Y6424488D02*
X55766201Y6502623D01*
X55766201Y6502623D02*
X55922472Y6580759D01*
X55922472Y6580759D02*
X56078742Y6580759D01*
X58813476Y5486865D02*
X58266529Y6268218D01*
X57875853Y5486865D02*
X57875853Y7127705D01*
X57875853Y7127705D02*
X58500935Y7127705D01*
X58500935Y7127705D02*
X58657205Y7049570D01*
X58657205Y7049570D02*
X58735340Y6971435D01*
X58735340Y6971435D02*
X58813476Y6815164D01*
X58813476Y6815164D02*
X58813476Y6580759D01*
X58813476Y6580759D02*
X58735340Y6424488D01*
X58735340Y6424488D02*
X58657205Y6346353D01*
X58657205Y6346353D02*
X58500935Y6268218D01*
X58500935Y6268218D02*
X57875853Y6268218D01*
X60141775Y5565000D02*
X59985504Y5486865D01*
X59985504Y5486865D02*
X59672963Y5486865D01*
X59672963Y5486865D02*
X59516693Y5565000D01*
X59516693Y5565000D02*
X59438557Y5721271D01*
X59438557Y5721271D02*
X59438557Y6346353D01*
X59438557Y6346353D02*
X59516693Y6502623D01*
X59516693Y6502623D02*
X59672963Y6580759D01*
X59672963Y6580759D02*
X59985504Y6580759D01*
X59985504Y6580759D02*
X60141775Y6502623D01*
X60141775Y6502623D02*
X60219910Y6346353D01*
X60219910Y6346353D02*
X60219910Y6190082D01*
X60219910Y6190082D02*
X59438557Y6033812D01*
X60844991Y5565000D02*
X61001262Y5486865D01*
X61001262Y5486865D02*
X61313803Y5486865D01*
X61313803Y5486865D02*
X61470073Y5565000D01*
X61470073Y5565000D02*
X61548209Y5721271D01*
X61548209Y5721271D02*
X61548209Y5799406D01*
X61548209Y5799406D02*
X61470073Y5955677D01*
X61470073Y5955677D02*
X61313803Y6033812D01*
X61313803Y6033812D02*
X61079397Y6033812D01*
X61079397Y6033812D02*
X60923127Y6111947D01*
X60923127Y6111947D02*
X60844991Y6268218D01*
X60844991Y6268218D02*
X60844991Y6346353D01*
X60844991Y6346353D02*
X60923127Y6502623D01*
X60923127Y6502623D02*
X61079397Y6580759D01*
X61079397Y6580759D02*
X61313803Y6580759D01*
X61313803Y6580759D02*
X61470073Y6502623D01*
X62876508Y5565000D02*
X62720237Y5486865D01*
X62720237Y5486865D02*
X62407696Y5486865D01*
X62407696Y5486865D02*
X62251426Y5565000D01*
X62251426Y5565000D02*
X62173290Y5721271D01*
X62173290Y5721271D02*
X62173290Y6346353D01*
X62173290Y6346353D02*
X62251426Y6502623D01*
X62251426Y6502623D02*
X62407696Y6580759D01*
X62407696Y6580759D02*
X62720237Y6580759D01*
X62720237Y6580759D02*
X62876508Y6502623D01*
X62876508Y6502623D02*
X62954643Y6346353D01*
X62954643Y6346353D02*
X62954643Y6190082D01*
X62954643Y6190082D02*
X62173290Y6033812D01*
X64361077Y5486865D02*
X64361077Y6346353D01*
X64361077Y6346353D02*
X64282942Y6502623D01*
X64282942Y6502623D02*
X64126671Y6580759D01*
X64126671Y6580759D02*
X63814130Y6580759D01*
X63814130Y6580759D02*
X63657860Y6502623D01*
X64361077Y5565000D02*
X64204806Y5486865D01*
X64204806Y5486865D02*
X63814130Y5486865D01*
X63814130Y5486865D02*
X63657860Y5565000D01*
X63657860Y5565000D02*
X63579724Y5721271D01*
X63579724Y5721271D02*
X63579724Y5877541D01*
X63579724Y5877541D02*
X63657860Y6033812D01*
X63657860Y6033812D02*
X63814130Y6111947D01*
X63814130Y6111947D02*
X64204806Y6111947D01*
X64204806Y6111947D02*
X64361077Y6190082D01*
X65142430Y5486865D02*
X65142430Y6580759D01*
X65142430Y6268218D02*
X65220565Y6424488D01*
X65220565Y6424488D02*
X65298700Y6502623D01*
X65298700Y6502623D02*
X65454971Y6580759D01*
X65454971Y6580759D02*
X65611241Y6580759D01*
X66861405Y5565000D02*
X66705134Y5486865D01*
X66705134Y5486865D02*
X66392593Y5486865D01*
X66392593Y5486865D02*
X66236323Y5565000D01*
X66236323Y5565000D02*
X66158188Y5643136D01*
X66158188Y5643136D02*
X66080052Y5799406D01*
X66080052Y5799406D02*
X66080052Y6268218D01*
X66080052Y6268218D02*
X66158188Y6424488D01*
X66158188Y6424488D02*
X66236323Y6502623D01*
X66236323Y6502623D02*
X66392593Y6580759D01*
X66392593Y6580759D02*
X66705134Y6580759D01*
X66705134Y6580759D02*
X66861405Y6502623D01*
X67564622Y5486865D02*
X67564622Y7127705D01*
X68267839Y5486865D02*
X68267839Y6346353D01*
X68267839Y6346353D02*
X68189704Y6502623D01*
X68189704Y6502623D02*
X68033433Y6580759D01*
X68033433Y6580759D02*
X67799027Y6580759D01*
X67799027Y6580759D02*
X67642757Y6502623D01*
X67642757Y6502623D02*
X67564622Y6424488D01*
X70299356Y7127705D02*
X70299356Y5799406D01*
X70299356Y5799406D02*
X70377491Y5643136D01*
X70377491Y5643136D02*
X70455626Y5565000D01*
X70455626Y5565000D02*
X70611897Y5486865D01*
X70611897Y5486865D02*
X70924438Y5486865D01*
X70924438Y5486865D02*
X71080708Y5565000D01*
X71080708Y5565000D02*
X71158843Y5643136D01*
X71158843Y5643136D02*
X71236979Y5799406D01*
X71236979Y5799406D02*
X71236979Y7127705D01*
X71940195Y5565000D02*
X72096466Y5486865D01*
X72096466Y5486865D02*
X72409007Y5486865D01*
X72409007Y5486865D02*
X72565277Y5565000D01*
X72565277Y5565000D02*
X72643413Y5721271D01*
X72643413Y5721271D02*
X72643413Y5799406D01*
X72643413Y5799406D02*
X72565277Y5955677D01*
X72565277Y5955677D02*
X72409007Y6033812D01*
X72409007Y6033812D02*
X72174601Y6033812D01*
X72174601Y6033812D02*
X72018331Y6111947D01*
X72018331Y6111947D02*
X71940195Y6268218D01*
X71940195Y6268218D02*
X71940195Y6346353D01*
X71940195Y6346353D02*
X72018331Y6502623D01*
X72018331Y6502623D02*
X72174601Y6580759D01*
X72174601Y6580759D02*
X72409007Y6580759D01*
X72409007Y6580759D02*
X72565277Y6502623D01*
X73971712Y5565000D02*
X73815441Y5486865D01*
X73815441Y5486865D02*
X73502900Y5486865D01*
X73502900Y5486865D02*
X73346630Y5565000D01*
X73346630Y5565000D02*
X73268494Y5721271D01*
X73268494Y5721271D02*
X73268494Y6346353D01*
X73268494Y6346353D02*
X73346630Y6502623D01*
X73346630Y6502623D02*
X73502900Y6580759D01*
X73502900Y6580759D02*
X73815441Y6580759D01*
X73815441Y6580759D02*
X73971712Y6502623D01*
X73971712Y6502623D02*
X74049847Y6346353D01*
X74049847Y6346353D02*
X74049847Y6190082D01*
X74049847Y6190082D02*
X73268494Y6033812D01*
X76315769Y7127705D02*
X76628310Y7127705D01*
X76628310Y7127705D02*
X76784580Y7049570D01*
X76784580Y7049570D02*
X76940851Y6893300D01*
X76940851Y6893300D02*
X77018986Y6580759D01*
X77018986Y6580759D02*
X77018986Y6033812D01*
X77018986Y6033812D02*
X76940851Y5721271D01*
X76940851Y5721271D02*
X76784580Y5565000D01*
X76784580Y5565000D02*
X76628310Y5486865D01*
X76628310Y5486865D02*
X76315769Y5486865D01*
X76315769Y5486865D02*
X76159498Y5565000D01*
X76159498Y5565000D02*
X76003228Y5721271D01*
X76003228Y5721271D02*
X75925092Y6033812D01*
X75925092Y6033812D02*
X75925092Y6580759D01*
X75925092Y6580759D02*
X76003228Y6893300D01*
X76003228Y6893300D02*
X76159498Y7049570D01*
X76159498Y7049570D02*
X76315769Y7127705D01*
X77722203Y6580759D02*
X77722203Y5486865D01*
X77722203Y6424488D02*
X77800338Y6502623D01*
X77800338Y6502623D02*
X77956608Y6580759D01*
X77956608Y6580759D02*
X78191014Y6580759D01*
X78191014Y6580759D02*
X78347285Y6502623D01*
X78347285Y6502623D02*
X78425420Y6346353D01*
X78425420Y6346353D02*
X78425420Y5486865D01*
X79441178Y5486865D02*
X79284908Y5565000D01*
X79284908Y5565000D02*
X79206773Y5721271D01*
X79206773Y5721271D02*
X79206773Y7127705D01*
X79909990Y6580759D02*
X80300666Y5486865D01*
X80691343Y6580759D02*
X80300666Y5486865D01*
X80300666Y5486865D02*
X80144396Y5096189D01*
X80144396Y5096189D02*
X80066261Y5018054D01*
X80066261Y5018054D02*
X79909990Y4939919D01*
D11*
X13455992Y29179330D02*
X13455992Y27606344D01*
X13455992Y27606344D02*
X13548521Y27421287D01*
X13548521Y27421287D02*
X13641050Y27328758D01*
X13641050Y27328758D02*
X13826107Y27236230D01*
X13826107Y27236230D02*
X14196221Y27236230D01*
X14196221Y27236230D02*
X14381278Y27328758D01*
X14381278Y27328758D02*
X14473807Y27421287D01*
X14473807Y27421287D02*
X14566335Y27606344D01*
X14566335Y27606344D02*
X14566335Y29179330D01*
X15399093Y27328758D02*
X15676679Y27236230D01*
X15676679Y27236230D02*
X16139321Y27236230D01*
X16139321Y27236230D02*
X16324379Y27328758D01*
X16324379Y27328758D02*
X16416907Y27421287D01*
X16416907Y27421287D02*
X16509436Y27606344D01*
X16509436Y27606344D02*
X16509436Y27791401D01*
X16509436Y27791401D02*
X16416907Y27976458D01*
X16416907Y27976458D02*
X16324379Y28068987D01*
X16324379Y28068987D02*
X16139321Y28161516D01*
X16139321Y28161516D02*
X15769207Y28254044D01*
X15769207Y28254044D02*
X15584150Y28346573D01*
X15584150Y28346573D02*
X15491621Y28439101D01*
X15491621Y28439101D02*
X15399093Y28624158D01*
X15399093Y28624158D02*
X15399093Y28809216D01*
X15399093Y28809216D02*
X15491621Y28994273D01*
X15491621Y28994273D02*
X15584150Y29086801D01*
X15584150Y29086801D02*
X15769207Y29179330D01*
X15769207Y29179330D02*
X16231850Y29179330D01*
X16231850Y29179330D02*
X16509436Y29086801D01*
X17989892Y28254044D02*
X18267478Y28161516D01*
X18267478Y28161516D02*
X18360007Y28068987D01*
X18360007Y28068987D02*
X18452535Y27883930D01*
X18452535Y27883930D02*
X18452535Y27606344D01*
X18452535Y27606344D02*
X18360007Y27421287D01*
X18360007Y27421287D02*
X18267478Y27328758D01*
X18267478Y27328758D02*
X18082421Y27236230D01*
X18082421Y27236230D02*
X17342192Y27236230D01*
X17342192Y27236230D02*
X17342192Y29179330D01*
X17342192Y29179330D02*
X17989892Y29179330D01*
X17989892Y29179330D02*
X18174950Y29086801D01*
X18174950Y29086801D02*
X18267478Y28994273D01*
X18267478Y28994273D02*
X18360007Y28809216D01*
X18360007Y28809216D02*
X18360007Y28624158D01*
X18360007Y28624158D02*
X18267478Y28439101D01*
X18267478Y28439101D02*
X18174950Y28346573D01*
X18174950Y28346573D02*
X17989892Y28254044D01*
X17989892Y28254044D02*
X17342192Y28254044D01*
X40941792Y27419969D02*
X40849264Y27327440D01*
X40849264Y27327440D02*
X40571678Y27234912D01*
X40571678Y27234912D02*
X40386621Y27234912D01*
X40386621Y27234912D02*
X40109035Y27327440D01*
X40109035Y27327440D02*
X39923978Y27512498D01*
X39923978Y27512498D02*
X39831449Y27697555D01*
X39831449Y27697555D02*
X39738921Y28067669D01*
X39738921Y28067669D02*
X39738921Y28345255D01*
X39738921Y28345255D02*
X39831449Y28715369D01*
X39831449Y28715369D02*
X39923978Y28900426D01*
X39923978Y28900426D02*
X40109035Y29085483D01*
X40109035Y29085483D02*
X40386621Y29178012D01*
X40386621Y29178012D02*
X40571678Y29178012D01*
X40571678Y29178012D02*
X40849264Y29085483D01*
X40849264Y29085483D02*
X40941792Y28992955D01*
X42699835Y27234912D02*
X41774549Y27234912D01*
X41774549Y27234912D02*
X41774549Y29178012D01*
X43347535Y27234912D02*
X43347535Y29178012D01*
X44457878Y27234912D02*
X43625121Y28345255D01*
X44457878Y29178012D02*
X43347535Y28067669D01*
X41080585Y24106630D02*
X41080585Y26049730D01*
X42005871Y24106630D02*
X42005871Y26049730D01*
X42005871Y26049730D02*
X43116214Y24106630D01*
X43116214Y24106630D02*
X43116214Y26049730D01*
X53441792Y27419969D02*
X53349264Y27327440D01*
X53349264Y27327440D02*
X53071678Y27234912D01*
X53071678Y27234912D02*
X52886621Y27234912D01*
X52886621Y27234912D02*
X52609035Y27327440D01*
X52609035Y27327440D02*
X52423978Y27512498D01*
X52423978Y27512498D02*
X52331449Y27697555D01*
X52331449Y27697555D02*
X52238921Y28067669D01*
X52238921Y28067669D02*
X52238921Y28345255D01*
X52238921Y28345255D02*
X52331449Y28715369D01*
X52331449Y28715369D02*
X52423978Y28900426D01*
X52423978Y28900426D02*
X52609035Y29085483D01*
X52609035Y29085483D02*
X52886621Y29178012D01*
X52886621Y29178012D02*
X53071678Y29178012D01*
X53071678Y29178012D02*
X53349264Y29085483D01*
X53349264Y29085483D02*
X53441792Y28992955D01*
X55199835Y27234912D02*
X54274549Y27234912D01*
X54274549Y27234912D02*
X54274549Y29178012D01*
X55847535Y27234912D02*
X55847535Y29178012D01*
X56957878Y27234912D02*
X56125121Y28345255D01*
X56957878Y29178012D02*
X55847535Y28067669D01*
X52655300Y26049730D02*
X53025414Y26049730D01*
X53025414Y26049730D02*
X53210471Y25957201D01*
X53210471Y25957201D02*
X53395528Y25772144D01*
X53395528Y25772144D02*
X53488057Y25402030D01*
X53488057Y25402030D02*
X53488057Y24754330D01*
X53488057Y24754330D02*
X53395528Y24384216D01*
X53395528Y24384216D02*
X53210471Y24199158D01*
X53210471Y24199158D02*
X53025414Y24106630D01*
X53025414Y24106630D02*
X52655300Y24106630D01*
X52655300Y24106630D02*
X52470243Y24199158D01*
X52470243Y24199158D02*
X52285185Y24384216D01*
X52285185Y24384216D02*
X52192657Y24754330D01*
X52192657Y24754330D02*
X52192657Y25402030D01*
X52192657Y25402030D02*
X52285185Y25772144D01*
X52285185Y25772144D02*
X52470243Y25957201D01*
X52470243Y25957201D02*
X52655300Y26049730D01*
X54320814Y26049730D02*
X54320814Y24476744D01*
X54320814Y24476744D02*
X54413343Y24291687D01*
X54413343Y24291687D02*
X54505872Y24199158D01*
X54505872Y24199158D02*
X54690929Y24106630D01*
X54690929Y24106630D02*
X55061043Y24106630D01*
X55061043Y24106630D02*
X55246100Y24199158D01*
X55246100Y24199158D02*
X55338629Y24291687D01*
X55338629Y24291687D02*
X55431157Y24476744D01*
X55431157Y24476744D02*
X55431157Y26049730D01*
X56078858Y26049730D02*
X57189201Y26049730D01*
X56634029Y24106630D02*
X56634029Y26049730D01*
X70957656Y28244044D02*
X71605356Y28244044D01*
X71882942Y27226230D02*
X70957656Y27226230D01*
X70957656Y27226230D02*
X70957656Y29169330D01*
X70957656Y29169330D02*
X71882942Y29169330D01*
X72530642Y29169330D02*
X73826042Y27226230D01*
X73826042Y29169330D02*
X72530642Y27226230D01*
X74566270Y27226230D02*
X74566270Y29169330D01*
X74566270Y29169330D02*
X75306499Y29169330D01*
X75306499Y29169330D02*
X75491556Y29076801D01*
X75491556Y29076801D02*
X75584085Y28984273D01*
X75584085Y28984273D02*
X75676613Y28799216D01*
X75676613Y28799216D02*
X75676613Y28521630D01*
X75676613Y28521630D02*
X75584085Y28336573D01*
X75584085Y28336573D02*
X75491556Y28244044D01*
X75491556Y28244044D02*
X75306499Y28151516D01*
X75306499Y28151516D02*
X74566270Y28151516D01*
X76416842Y27781401D02*
X77342128Y27781401D01*
X76231785Y27226230D02*
X76879485Y29169330D01*
X76879485Y29169330D02*
X77527185Y27226230D01*
X78174884Y27226230D02*
X78174884Y29169330D01*
X78174884Y29169330D02*
X79285227Y27226230D01*
X79285227Y27226230D02*
X79285227Y29169330D01*
X80117985Y27318758D02*
X80395571Y27226230D01*
X80395571Y27226230D02*
X80858213Y27226230D01*
X80858213Y27226230D02*
X81043271Y27318758D01*
X81043271Y27318758D02*
X81135799Y27411287D01*
X81135799Y27411287D02*
X81228328Y27596344D01*
X81228328Y27596344D02*
X81228328Y27781401D01*
X81228328Y27781401D02*
X81135799Y27966458D01*
X81135799Y27966458D02*
X81043271Y28058987D01*
X81043271Y28058987D02*
X80858213Y28151516D01*
X80858213Y28151516D02*
X80488099Y28244044D01*
X80488099Y28244044D02*
X80303042Y28336573D01*
X80303042Y28336573D02*
X80210513Y28429101D01*
X80210513Y28429101D02*
X80117985Y28614158D01*
X80117985Y28614158D02*
X80117985Y28799216D01*
X80117985Y28799216D02*
X80210513Y28984273D01*
X80210513Y28984273D02*
X80303042Y29076801D01*
X80303042Y29076801D02*
X80488099Y29169330D01*
X80488099Y29169330D02*
X80950742Y29169330D01*
X80950742Y29169330D02*
X81228328Y29076801D01*
X82061084Y27226230D02*
X82061084Y29169330D01*
X83356485Y29169330D02*
X83726599Y29169330D01*
X83726599Y29169330D02*
X83911656Y29076801D01*
X83911656Y29076801D02*
X84096713Y28891744D01*
X84096713Y28891744D02*
X84189242Y28521630D01*
X84189242Y28521630D02*
X84189242Y27873930D01*
X84189242Y27873930D02*
X84096713Y27503816D01*
X84096713Y27503816D02*
X83911656Y27318758D01*
X83911656Y27318758D02*
X83726599Y27226230D01*
X83726599Y27226230D02*
X83356485Y27226230D01*
X83356485Y27226230D02*
X83171428Y27318758D01*
X83171428Y27318758D02*
X82986370Y27503816D01*
X82986370Y27503816D02*
X82893842Y27873930D01*
X82893842Y27873930D02*
X82893842Y28521630D01*
X82893842Y28521630D02*
X82986370Y28891744D01*
X82986370Y28891744D02*
X83171428Y29076801D01*
X83171428Y29076801D02*
X83356485Y29169330D01*
X85021999Y27226230D02*
X85021999Y29169330D01*
X85021999Y29169330D02*
X86132342Y27226230D01*
X86132342Y27226230D02*
X86132342Y29169330D01*
%LPC*%
D12*
%TO.C,UNK_HOLE_1*%
X54603400Y16907000D03*
%TD*%
%TO.C,UNK_HOLE_0*%
X42103400Y16907000D03*
%TD*%
%LPD*%
M02*
